<?xml version="1.0" standalone="no"?>
<!DOCTYPE svg PUBLIC "-//W3C//DTD SVG 20010904//EN"
 "http://www.w3.org/TR/2001/REC-SVG-20010904/DTD/svg10.dtd">
<svg version="1.0" xmlns="http://www.w3.org/2000/svg"
 width="1024.000000pt" height="1024.000000pt" viewBox="0 0 1024.000000 1024.000000"
 preserveAspectRatio="xMidYMid meet">
<metadata>
Created by potrace 1.15, written by Peter Selinger 2001-2017
</metadata>
<g transform="translate(0.000000,1024.000000) scale(0.100000,-0.100000)"
fill="#000000" stroke="none">
<path d="M3700 6980 c-121 -16 -256 -69 -372 -147 -73 -49 -165 -141 -268
-269 -86 -106 -164 -200 -347 -422 -138 -165 -153 -187 -153 -221 0 -53 35
-81 127 -103 34 -8 439 -13 1393 -17 l1345 -6 65 -31 c124 -59 169 -120 170
-226 0 -104 -33 -171 -212 -426 -135 -193 -160 -244 -166 -342 -3 -68 -1 -80
25 -130 34 -64 101 -120 177 -145 69 -23 191 -30 258 -15 115 27 259 104 366
196 94 80 323 352 623 739 47 61 155 199 240 308 345 444 379 494 422 627 33
100 41 165 28 236 -33 178 -175 317 -389 382 -53 16 -179 17 -1667 18 -885 1
-1635 -2 -1665 -6z"/>
<path d="M3815 4703 c-126 -158 -284 -353 -351 -433 -216 -261 -364 -466 -418
-580 -43 -90 -49 -210 -15 -306 44 -124 149 -213 319 -270 52 -18 122 -19
1485 -22 1508 -3 1509 -3 1643 42 201 69 328 173 542 446 41 52 83 104 92 115
117 141 297 362 310 383 39 60 11 109 -78 140 -44 15 -176 17 -1349 22 -1139
6 -1309 8 -1370 22 -185 43 -314 107 -416 208 -122 120 -163 222 -164 403 0
64 0 117 0 117 0 0 -103 -130 -230 -287z"/>
</g>
</svg>
